#!OML:ASF E:\Steps\Project 1\Capture day 1\Session 2\Subject.ASF
:FULLY-SPECIFIED
:DEGREES
16
root -1.38256 16.276 21.3468 -154.742 0.738707 180.031
lowerback -28.8728 -3.10075 -6.13334
upperback -0.217479 -1.55067 0.251803
thorax 15.265 -0.934292 3.06597
lowerneck -1.36161 -6.76087 -0.653311
upperneck 16.1536 -8.79978 3.31282
head 5.26535 -3.79807 0.723947
rclavicle -8.15017e-015 -6.75868e-015
rhumerus -40.6484 -17.7482 -77.4603
rradius 35.352
rwrist -3.81803
rhand -8.51496 -52.8514
rfingers 7.12502
rthumb 17.4133 -82.0914
lclavicle -8.15017e-015 -6.75868e-015
lhumerus -31.556 8.07564 79.4486
lradius 21.3224
lwrist -5.45107
lhand -21.5969 -14.2954
lfingers 7.12502
lthumb 4.79798 15.6303
rfemur -24.7339 7.93559 19.7587
rtibia 9.1825
rfoot -18.201 -1.19999
rtoes -22.3988
lfemur -23.7047 -7.4394 -21.0839
ltibia 8.12216
lfoot -6.84056 -2.14364
ltoes -21.7785
17
root -1.38606 16.2763 21.3523 -154.765 0.88006 179.978
lowerback -28.9115 -3.18801 -6.25726
upperback -0.122467 -1.63746 0.293248
thorax 15.4078 -0.994173 3.14133
lowerneck -1.73156 -6.87302 -0.576154
upperneck 16.7797 -8.89892 2.91256
head 5.50327 -3.83877 0.562295
rclavicle 1.2424e-014 2.26615e-014
rhumerus -40.4697 -17.5566 -77.5393
rradius 35.5043
rwrist -3.87039
rhand -8.33638 -53.4128
rfingers 7.12502
rthumb 17.5852 -82.6375
lclavicle 1.2424e-014 2.26615e-014
lhumerus -31.3844 8.44862 79.4076
lradius 21.2095
lwrist -5.60551
lhand -21.5674 -14.5675
lfingers 7.12502
lthumb 4.82644 15.3576
rfemur -24.7876 7.91043 19.6646
rtibia 9.23212
rfoot -18.1296 -1.11287
rtoes -22.6129
lfemur -23.7458 -7.44844 -21.185
ltibia 8.19687
lfoot -6.90423 -2.00028
ltoes -21.8328
18
root -1.38337 16.2776 21.3545 -154.799 1.09606 179.918
lowerback -28.7355 -3.24116 -6.45764
upperback -0.174477 -1.66091 0.334129
thorax 15.2724 -1.01626 3.28946
lowerneck -1.7852 -7.01528 -0.682618
upperneck 17.1629 -9.05428 2.8
head 5.63514 -3.90879 0.528903
rclavicle 1.2921e-015 -1.43125e-014
rhumerus -40.5321 -17.3597 -77.5121
rradius 35.6254
rwrist -3.87252
rhand -8.15871 -53.9351
rfingers 7.12502
rthumb 17.7561 -83.1444
lclavicle 1.2921e-015 -1.43125e-014
lhumerus -31.5578 8.51673 79.4331
lradius 21.3081
lwrist -5.64289
lhand -21.6528 -14.6545
lfingers 7.12502
lthumb 4.74402 15.2724
rfemur -24.8479 8.07004 19.5248
rtibia 9.32886
rfoot -18.074 -1.14354
rtoes -22.7441
lfemur -23.7627 -7.41901 -21.25
ltibia 8.26076
lfoot -6.94878 -1.84891
ltoes -21.5545
19
root -1.3806 16.2784 21.355 -154.758 1.29849 179.819
lowerback -29.0566 -3.32852 -6.65982
upperback 0.0409684 -1.69525 0.344789
thorax 15.6859 -1.06969 3.38731
lowerneck -1.76447 -7.13244 -0.815939
upperneck 16.942 -9.24857 2.9773
head 5.58148 -4.0157 0.596262
rclavicle -1.68967e-014 -1.90833e-014
rhumerus -40.1376 -17.4109 -77.5914
rradius 35.5726
rwrist -3.7472
rhand -8.28463 -53.7616
rfingers 7.12502
rthumb 17.6349 -82.9818
lclavicle -1.68967e-014 -1.90833e-014
lhumerus -31.3081 8.53171 79.5542
lradius 21.4137
lwrist -5.56631
lhand -21.8691 -14.2372
lfingers 7.12502
lthumb 4.53522 15.6943
rfemur -24.9832 8.13484 19.3451
rtibia 9.4325
rfoot -18.1091 -1.07762
rtoes -22.7348
lfemur -23.8258 -7.41424 -21.365
ltibia 8.30087
lfoot -6.92488 -1.73928
ltoes -21.917
20
root -1.38503 16.2759 21.3606 -154.822 1.2425 180.045
lowerback -28.802 -3.31632 -6.39214
upperback -0.00554634 -1.80857 0.406998
thorax 15.5198 -1.10002 3.26995
lowerneck -1.6013 -7.27197 -0.85366
upperneck 17.009 -9.42412 2.9773
head 5.58058 -4.09945 0.597595
rclavicle -1.41137e-014 -3.89618e-014
rhumerus -40.2598 -17.3726 -77.5893
rradius 35.6604
rwrist -3.7895
rhand -8.43037 -53.638
rfingers 7.12502
rthumb 17.4947 -82.8708
lclavicle -1.41137e-014 -3.89618e-014
lhumerus -31.4516 8.28202 79.6616
lradius 21.5654
lwrist -5.3692
lhand -22.1287 -13.7292
lfingers 7.12502
lthumb 4.28445 16.2075
rfemur -24.9252 7.95456 19.684
rtibia 9.46346
rfoot -18.1272 -0.810281
rtoes -22.7901
lfemur -23.782 -7.46852 -21.104
ltibia 8.30145
lfoot -6.85184 -1.6449
ltoes -22.3012
21
root -1.39935 16.2797 21.3746 -154.755 1.28817 179.937
lowerback -28.4962 -3.29853 -6.25193
upperback -0.179292 -1.8217 0.270775
thorax 15.1628 -1.07081 3.04879
lowerneck -1.35069 -7.45964 -0.739277
upperneck 17.1525 -9.64463 2.84984
head 5.57609 -4.19804 0.536326
rclavicle 8.54774e-015 3.18055e-015
rhumerus -40.5219 -17.3843 -77.6267
rradius 35.7525
rwrist -3.86483
rhand -8.28343 -53.9697
rfingers 7.12502
rthumb 17.6361 -83.1899
lclavicle 8.54774e-015 3.18055e-015
lhumerus -31.6788 7.92001 79.6588
lradius 21.7073
lwrist -5.17701
lhand -22.1456 -13.4229
lfingers 7.12502
lthumb 4.2682 16.514
rfemur -25.0915 7.4217 19.6401
rtibia 9.58223
rfoot -18.1368 -0.356374
rtoes -23.2785
lfemur -23.9264 -7.65356 -21.2956
ltibia 8.38976
lfoot -6.82883 -1.5436
ltoes -21.7435
22
root -1.39848 16.2799 21.3837 -154.71 1.56434 180.048
lowerback -28.4924 -3.27194 -6.24483
upperback -0.137303 -1.80484 0.316515
thorax 15.2104 -1.07076 3.10081
lowerneck -0.896312 -7.57326 -0.86352
upperneck 16.695 -9.81573 3.02661
head 5.37552 -4.30241 0.625093
rclavicle 1.35174e-014 1.63003e-014
rhumerus -40.3577 -17.277 -77.6852
rradius 35.7692
rwrist -4.00648
rhand -8.13841 -53.8689
rfingers 7.12502
rthumb 17.7757 -83.0765
lclavicle 1.35174e-014 1.63003e-014
lhumerus -31.5781 7.90722 79.7396
lradius 21.792
lwrist -5.09627
lhand -21.8539 -13.2274
lfingers 7.12502
lthumb 4.54985 16.7037
rfemur -25.2993 7.71171 19.6698
rtibia 9.7399
rfoot -18.1417 -0.443705
rtoes -23.9412
lfemur -24.0704 -7.63906 -21.1644
ltibia 8.54611
lfoot -6.94097 -1.23534
ltoes -21.8977
23
root -1.40062 16.2776 21.3895 -154.678 1.71867 180.136
lowerback -28.6624 -3.33463 -6.28935
upperback 0.0229388 -1.89318 0.427752
thorax 15.4946 -1.13609 3.20476
lowerneck -0.400223 -7.65859 -1.11803
upperneck 16.0018 -9.97655 3.38633
head 5.11201 -4.41239 0.795825
rclavicle -1.95803e-014 -3.29983e-014
rhumerus -40.0572 -17.2289 -77.711
rradius 35.8313
rwrist -4.07265
rhand -8.16841 -53.2367
rfingers 7.12502
rthumb 17.7468 -82.4469
lclavicle -1.95803e-014 -3.29983e-014
lhumerus -31.3368 8.04593 79.8659
lradius 21.8539
lwrist -4.94696
lhand -21.6567 -13.4449
lfingers 7.12502
lthumb 4.7403 16.482
rfemur -25.3679 8.00291 19.6875
rtibia 9.74821
rfoot -18.1257 -0.537457
rtoes -24.0984
lfemur -24.2083 -7.59116 -21.1019
ltibia 8.75073
lfoot -7.05206 -1.09343
ltoes -22.5698
24
root -1.39156 16.2771 21.3852 -154.747 1.96481 180.047
lowerback -28.8435 -3.3933 -6.52311
upperback 0.177714 -1.87998 0.392296
thorax 15.766 -1.16165 3.29151
lowerneck -0.260083 -7.82151 -1.11396
upperneck 15.8492 -10.2077 3.43235
head 5.0497 -4.53275 0.805268
rclavicle -1.16289e-014 -1.63003e-014
rhumerus -39.9357 -17.4389 -77.7611
rradius 35.862
rwrist -3.91214
rhand -8.1697 -53.0519
rfingers 7.12502
rthumb 17.7455 -82.2622
lclavicle -1.16289e-014 -1.63003e-014
lhumerus -31.1745 8.04294 79.8238
lradius 21.8242
lwrist -4.9228
lhand -21.6524 -13.805
lfingers 7.12502
lthumb 4.7444 16.1219
rfemur -25.3314 8.53801 19.4308
rtibia 9.73258
rfoot -18.1188 -0.880681
rtoes -24.2679
lfemur -24.184 -7.53444 -21.1818
ltibia 8.84334
lfoot -7.14975 -0.955272
ltoes -22.6554
25
root -1.39501 16.2758 21.3845 -154.774 2.13324 179.975
lowerback -28.2344 -3.35723 -6.55133
upperback -0.193551 -1.8443 0.349077
thorax 15.0356 -1.10735 3.29323
lowerneck -0.0638224 -8.05875 -1.17123
upperneck 16.3359 -10.4704 3.28865
head 5.17036 -4.64334 0.758603
rclavicle -1.10325e-014 -1.35174e-014
rhumerus -40.5806 -17.2464 -77.5937
rradius 35.9782
rwrist -4.0223
rhand -8.09016 -53.6077
rfingers 7.12502
rthumb 17.8221 -82.8111
lclavicle -1.10325e-014 -1.35174e-014
lhumerus -31.7488 7.78473 79.8223
lradius 21.8621
lwrist -4.96171
lhand -21.6699 -13.8148
lfingers 7.12502
lthumb 4.72755 16.1124
rfemur -25.3595 8.44975 19.332
rtibia 9.80144
rfoot -18.1415 -0.693749
rtoes -24.2747
lfemur -24.194 -7.56641 -21.318
ltibia 8.95088
lfoot -7.31117 -0.842264
ltoes -22.3923
26
root -1.408 16.2767 21.3919 -154.694 2.1859 179.847
lowerback -28.397 -3.41068 -6.52372
upperback -0.050554 -1.90788 0.28242
thorax 15.2829 -1.14493 3.17391
lowerneck -0.215885 -8.18053 -1.23673
upperneck 16.4931 -10.6532 3.39117
head 5.25872 -4.72456 0.780915
rclavicle 9.24349e-015 2.26615e-014
rhumerus -40.255 -17.1603 -77.7688
rradius 35.9893
rwrist -4.00735
rhand -7.98834 -54.0842
rfingers 7.12502
rthumb 17.9201 -83.2786
lclavicle 9.24349e-015 2.26615e-014
lhumerus -31.4677 7.71617 79.8992
lradius 21.9028
lwrist -4.87116
lhand -21.6133 -13.4444
lfingers 7.12502
lthumb 4.78214 16.4816
rfemur -25.5156 8.06807 19.223
rtibia 9.93048
rfoot -18.1746 -0.310592
rtoes -23.9515
lfemur -24.3738 -7.65315 -21.564
ltibia 9.15338
lfoot -7.40573 -0.797092
ltoes -22.1428
27
root -1.4066 16.2783 21.3983 -154.703 2.30386 179.889
lowerback -28.2791 -3.45442 -6.57789
upperback -0.0436444 -1.97044 0.32814
thorax 15.2454 -1.18059 3.23077
lowerneck -0.308335 -8.27814 -1.30505
upperneck 16.7755 -10.7672 3.31234
head 5.36477 -4.77573 0.752695
rclavicle 5.1684e-015 -3.57812e-015
rhumerus -40.3044 -17.1744 -77.725
rradius 36.0937
rwrist -3.89238
rhand -7.93563 -54.1495
rfingers 7.12502
rthumb 17.9708 -83.3392
lclavicle 5.1684e-015 -3.57812e-015
lhumerus -31.463 7.51455 80.0408
lradius 22.0509
lwrist -4.67713
lhand -22.3422 -13.9991
lfingers 7.12502
lthumb 4.07836 15.9416
rfemur -25.5959 8.55586 19.1366
rtibia 10.0148
rfoot -18.1686 -0.658565
rtoes -23.9389
lfemur -24.4815 -7.6404 -21.4858
ltibia 9.33029
lfoot -7.45476 -0.655067
ltoes -21.7977
